<svg xmlns="http://www.w3.org/2000/svg" width="960" height="560" viewBox="0 0 960 560">
  <rect width="960" height="560" fill="#f5f7fb"/>
  <rect x="32" y="30" width="896" height="500" fill="#ffffff" stroke="#ccd4e0"/>
  <text x="54" y="64" font-family="Segoe UI, Arial, sans-serif" font-size="24" fill="#1f2937">Flight Search</text>
  <g font-family="Segoe UI, Arial, sans-serif" font-size="14">
    <rect x="54" y="90" width="110" height="34" fill="#e7eef8" stroke="#9fb2cf"/>
    <text x="84" y="112" fill="#1f2937">Search</text>
    <rect x="168" y="90" width="110" height="34" fill="#ffffff" stroke="#ccd4e0"/>
    <text x="197" y="112" fill="#374151">Tracking</text>
    <rect x="282" y="90" width="130" height="34" fill="#ffffff" stroke="#ccd4e0"/>
    <text x="309" y="112" fill="#374151">Price Graph</text>
    <rect x="416" y="90" width="110" height="34" fill="#ffffff" stroke="#ccd4e0"/>
    <text x="444" y="112" fill="#374151">Settings</text>
  </g>
  <g font-family="Segoe UI, Arial, sans-serif" font-size="13" fill="#374151">
    <text x="58" y="154">Origin</text>
    <text x="168" y="154">Destination</text>
    <text x="304" y="154">Departure</text>
    <text x="444" y="154">Return</text>
    <text x="594" y="154">Max Price</text>
    <text x="716" y="154">Currency</text>
    <rect x="54" y="164" width="90" height="30" fill="#ffffff" stroke="#c7d2de"/>
    <text x="72" y="184">STR</text>
    <rect x="164" y="164" width="100" height="30" fill="#ffffff" stroke="#c7d2de"/>
    <text x="184" y="184">LIS</text>
    <rect x="300" y="164" width="110" height="30" fill="#ffffff" stroke="#c7d2de"/>
    <text x="314" y="184">2026-07-10</text>
    <rect x="440" y="164" width="110" height="30" fill="#ffffff" stroke="#c7d2de"/>
    <text x="454" y="184">Optional</text>
    <rect x="590" y="164" width="90" height="30" fill="#ffffff" stroke="#c7d2de"/>
    <text x="610" y="184">150</text>
    <rect x="712" y="164" width="70" height="30" fill="#ffffff" stroke="#c7d2de"/>
    <text x="732" y="184">EUR</text>
    <rect x="808" y="164" width="86" height="30" fill="#2563eb"/>
    <text x="831" y="184" fill="#ffffff">Search</text>
    <text x="58" y="220" fill="#6b7280">Airport hints: STR, BER, FRA, MUC</text>
  </g>
  <rect x="54" y="246" width="840" height="210" fill="#ffffff" stroke="#c7d2de"/>
  <g font-family="Segoe UI, Arial, sans-serif" font-size="13">
    <rect x="54" y="246" width="840" height="32" fill="#eef2f7"/>
    <text x="70" y="267" fill="#1f2937">Airline</text>
    <text x="190" y="267" fill="#1f2937">Route</text>
    <text x="330" y="267" fill="#1f2937">Departure</text>
    <text x="520" y="267" fill="#1f2937">Duration</text>
    <text x="650" y="267" fill="#1f2937">Stops</text>
    <text x="760" y="267" fill="#1f2937">Price</text>
    <line x1="54" y1="308" x2="894" y2="308" stroke="#e5e7eb"/>
    <text x="70" y="300" fill="#374151">Ryanair</text>
    <text x="190" y="300" fill="#374151">STR -> LIS</text>
    <text x="330" y="300" fill="#374151">2026-07-10 20:30</text>
    <text x="520" y="300" fill="#374151">2h 35m</text>
    <text x="650" y="300" fill="#374151">0</text>
    <text x="760" y="300" fill="#047857">89.99 EUR</text>
  </g>
  <g font-family="Segoe UI, Arial, sans-serif" font-size="13">
    <rect x="708" y="474" width="92" height="32" fill="#ffffff" stroke="#9fb2cf"/>
    <text x="731" y="494" fill="#1f2937">Save</text>
    <rect x="810" y="474" width="84" height="32" fill="#ffffff" stroke="#9fb2cf"/>
    <text x="822" y="494" fill="#1f2937">Booking</text>
  </g>
</svg>
